<svg width="1024" height="1024" viewBox="0 0 1024 1024" fill="none" xmlns="http://www.w3.org/2000/svg">
<path fill-rule="evenodd" clip-rule="evenodd" d="M167.954 3.38574C75.4649 3.38574 0.486328 195.54 0.486328 432.58V1020.61H98.5645V432.58C98.5645 334.372 129.631 254.749 167.954 254.749C206.275 254.749 237.342 334.372 237.342 432.58V1020.61H335.419V432.58C335.419 334.372 366.487 254.749 404.81 254.749C443.131 254.749 474.199 334.372 474.199 432.58V1020.61H572.276V709.112C533.643 697.99 503.613 613.983 503.613 511.998C503.613 415.46 530.521 335.027 566.164 317.28C546.511 136.239 481.713 3.38574 404.81 3.38574C358.559 3.38574 316.688 51.4361 286.381 129.121C256.075 51.4361 214.203 3.38574 167.954 3.38574Z" fill="#3F3F3F"/>
<path d="M914.691 625.153C921.25 591.025 924.939 552.619 924.939 512.007C924.939 472.955 921.532 435.94 915.44 402.808H734.32C728.228 435.94 724.822 472.955 724.822 512.007C724.822 552.619 728.506 591.025 735.064 625.153H914.691Z" fill="#1CE7C2"/>
<path d="M1023.95 512.007C1023.95 323.704 984.148 159.236 924.94 70.8313C895.54 26.941 861.353 1.7998 824.88 1.7998C729.56 1.7998 649.887 173.494 630.379 402.808C627.198 440.198 614.132 431.122 610.971 429.528C607.811 427.936 596.759 414.458 590.154 402.808C582.872 389.965 577.505 375.594 577.505 375.594C552.534 375.594 532.291 439.656 532.291 512C532.291 584.344 552.534 648.406 577.505 648.406C577.505 648.406 581.832 636.817 587.988 625.153C594.906 612.047 609.553 602.734 612.121 601.881C615.191 600.863 627.635 590.215 630.721 625.153C650.804 852.475 730.109 1022.2 824.88 1022.2C907.288 1022.2 977.997 893.876 1008.25 710.942H888.018C870.801 746.887 848.821 768.437 824.88 768.437C785.467 768.437 751.376 710.032 735.064 625.153C728.506 591.025 724.823 552.62 724.823 512.007C724.823 472.955 728.229 435.94 734.321 402.808C750.323 315.787 784.858 255.561 824.88 255.561C864.905 255.561 899.433 315.787 915.441 402.808C921.532 435.94 924.94 472.955 924.94 512.007C924.94 552.62 921.251 591.025 914.691 625.153H1019.04C1022.25 588.761 1023.95 550.893 1023.95 512.007Z" fill="#1CE7C2"/>
</svg>
